<?xml version="1.0" encoding="UTF-8"?>
<svg width="512" height="512" viewBox="0 0 512 512" fill="none" xmlns="http://www.w3.org/2000/svg">
  <rect width="512" height="512" rx="100" fill="#2563EB"/>
  <path d="M256 128C179.309 128 117 190.309 117 267C117 343.691 179.309 406 256 406C332.691 406 395 343.691 395 267C395 190.309 332.691 128 256 128ZM256 368C200.29 368 155 322.71 155 267C155 211.29 200.29 166 256 166C311.71 166 357 211.29 357 267C357 322.71 311.71 368 256 368Z" fill="white"/>
  <path d="M256 192C214.579 192 181 225.579 181 267C181 308.421 214.579 342 256 342C297.421 342 331 308.421 331 267C331 225.579 297.421 192 256 192ZM256 304C235.598 304 219 287.402 219 267C219 246.598 235.598 230 256 230C276.402 230 293 246.598 293 267C293 287.402 276.402 304 256 304Z" fill="white"/>
  <circle cx="256" cy="267" r="20" fill="white"/>
</svg> 